<svg width="737" height="634" viewBox="0 0 737 634" fill="none" xmlns="http://www.w3.org/2000/svg">
<g clip-path="url(#clip0)">
<path d="M94.3363 78.0933C94.3363 78.0933 104.007 101.061 82.2478 111.941C60.4885 122.821 140.273 143.371 148.735 116.776C148.735 116.776 126.975 108.314 136.646 82.9286L94.3363 78.0933Z" fill="#FFB9B9"/>
<path d="M120.327 552.567L119.118 577.953L139.668 581.58V556.194L120.327 552.567Z" fill="#FFB9B9"/>
<path d="M42.96 552.567L44.169 577.953L23.619 581.58V556.194L42.96 552.567Z" fill="#FFB9B9"/>
<path d="M117.909 91.9951C136.603 91.9951 151.757 76.8409 151.757 58.1472C151.757 39.4536 136.603 24.2994 117.909 24.2994C99.2152 24.2994 84.061 39.4536 84.061 58.1472C84.061 76.8409 99.2152 91.9951 117.909 91.9951Z" fill="#FFB9B9"/>
<path d="M165.055 303.544L163.845 313.214L169.89 336.183L178.351 315.633L165.055 303.544Z" fill="#FFB9B9"/>
<path d="M30.8716 307.171L23.6185 392.999C23.6185 392.999 15.1565 408.714 19.992 422.011C19.992 422.011 12.7389 440.144 15.1566 446.188C17.5743 452.233 18.7831 458.277 16.3654 460.695C13.9476 463.112 12.7388 530.808 16.3654 536.852C19.9919 542.897 22.4097 557.403 22.4097 557.403C22.4097 557.403 42.9601 562.238 47.7955 548.941C52.6309 535.643 50.2132 534.435 55.0486 530.808C59.884 527.181 59.884 476.41 59.884 476.41C59.884 476.41 53.8398 470.365 57.4664 467.948C61.093 465.53 63.5106 467.948 59.884 461.903C56.2574 455.859 50.2132 455.859 56.2575 453.441C59.6255 452.136 62.8633 450.517 65.9283 448.606L100.985 356.733C100.985 356.733 114.282 459.486 116.7 464.321C119.118 469.156 122.744 463.112 119.118 469.156C115.491 475.201 114.282 471.574 115.491 475.201C116.7 478.827 108.238 530.808 113.073 541.688C115.896 547.976 118.318 554.436 120.327 561.029C120.327 561.029 139.668 569.491 142.086 563.447C144.504 557.403 143.295 546.523 146.921 545.314C150.548 544.105 154.174 541.688 154.174 532.017C154.174 522.346 161.427 475.201 161.427 475.201C161.427 475.201 152.965 471.574 155.383 465.53C157.801 459.486 157.801 460.695 156.592 455.859C155.383 451.024 152.965 449.815 155.383 446.188C157.801 442.562 157.801 431.682 157.801 431.682L172.307 336.183L161.105 303.544L30.8716 307.171Z" fill="#2F2E41"/>
<path d="M121.535 571.909C121.535 571.909 117.909 568.282 116.7 571.909C115.491 575.535 115.491 609.383 115.491 609.383C115.491 609.383 125.162 616.636 125.162 620.263C125.162 623.89 132.415 635.978 149.339 633.56C149.508 633.536 149.676 633.511 149.841 633.485C152.291 633.087 154.616 632.126 156.63 630.675C158.645 629.225 160.294 627.326 161.448 625.129C162.603 622.932 163.23 620.496 163.281 618.014C163.332 615.532 162.805 613.073 161.741 610.83L144.504 574.327C144.504 574.327 132.415 562.238 121.535 571.909Z" fill="#2F2E41"/>
<path d="M41.7513 571.909C41.7513 571.909 45.3778 568.282 46.5867 571.909C47.7955 575.535 47.7956 609.383 47.7956 609.383C47.7956 609.383 38.1247 616.636 38.1247 620.263C38.1247 623.89 30.8717 635.978 13.9477 633.56C13.7784 633.536 13.611 633.511 13.4454 633.485C10.9952 633.087 8.67109 632.126 6.65662 630.675C4.64215 629.225 2.99259 627.326 1.83831 625.129C0.684022 622.931 0.0566553 620.496 0.00580123 618.014C-0.0450529 615.532 0.481999 613.073 1.54529 610.83L18.7831 574.327C18.7831 574.327 30.8716 562.238 41.7513 571.909Z" fill="#2F2E41"/>
<path d="M92.1114 21.4846L86.0639 19.0635C86.0639 19.0635 98.7086 5.14234 116.301 6.35293L111.353 0.905455C111.353 0.905455 123.448 -3.93664 134.444 8.77392C140.224 15.4556 146.911 23.3095 151.081 32.1569H157.557L154.854 38.1087L164.315 44.0605L154.604 42.9914C155.524 48.1297 155.209 53.4131 153.686 58.4058L153.946 63.1101C153.946 63.1101 142.69 45.6952 142.69 43.2741V49.3268C142.69 49.3268 136.643 43.8794 136.643 40.2478L133.344 44.4847L131.695 37.8267L111.353 44.4847L114.652 39.0373L102.007 40.8531L106.955 34.1951C106.955 34.1951 92.6612 42.0636 92.1114 48.7215C91.5617 55.3794 84.4147 63.8532 84.4147 63.8532L81.1161 57.8005C81.1161 57.8005 76.168 30.5635 92.1114 21.4846Z" fill="#2F2E41"/>
<path d="M169.89 133.096H183.358C184.347 133.096 185.308 133.432 186.081 134.05C186.854 134.668 187.393 135.53 187.611 136.496C189.689 145.698 195.045 171.785 194.067 192.33C192.858 217.716 195.275 235.848 194.067 239.475C192.858 243.101 194.067 244.31 194.067 247.937C194.067 251.563 197.693 249.146 194.067 253.981C190.44 258.817 190.44 257.608 190.44 261.234C190.44 264.861 178.352 320.468 178.352 320.468C178.352 320.468 170.041 306.809 160.899 309.407L162.636 260.025L165.054 239.475L161.428 203.209L169.89 133.096Z" fill="#3F3D56"/>
<path d="M111.26 120.403C111.26 120.403 90.7098 119.656 84.0611 110.963C84.0611 110.963 41.1469 125.238 36.3115 137.327C31.4761 149.416 53.2354 203.814 53.2354 203.814C53.2354 203.814 15.761 315.028 33.8937 315.028C52.0264 315.028 93.1274 329.534 117.304 321.072C132.286 315.877 147.643 311.835 163.241 308.984C163.241 308.984 165.659 276.345 163.241 270.301C160.823 264.256 154.779 267.883 158.405 259.421C162.032 250.959 160.823 249.75 159.614 246.124C158.405 242.497 162.032 237.662 162.032 232.826C162.032 227.991 160.823 217.111 160.823 217.111C160.823 217.111 193.462 140.954 186.209 133.7C178.956 126.447 142.036 112.472 142.036 112.472C142.036 112.472 131.811 125.238 111.26 120.403Z" fill="#3F3D56"/>
<path d="M16.3654 315.633C16.3654 315.633 5.48577 372.449 23.6185 367.613C41.7512 362.778 33.2893 315.633 33.2893 315.633H16.3654Z" fill="#FFB9B9"/>
<path d="M44.169 133.096L39.8757 135.243C38.2046 136.078 36.7494 137.289 35.6243 138.781C34.4991 140.273 33.7345 142.004 33.3901 143.841L16.3653 234.639C16.3653 234.639 11.5299 245.519 11.5299 246.728C11.5299 247.937 13.9476 247.937 11.5299 251.563C9.11227 255.19 5.48568 253.981 7.90341 256.399C9.28336 257.653 10.1455 259.378 10.3211 261.234L12.7388 320.468C12.7388 320.468 33.2893 314.424 39.3335 320.468C39.3335 320.468 33.2893 302.335 36.9158 296.291C40.5424 290.247 40.5424 281.785 40.5424 281.785C40.5424 281.785 38.1246 281.785 44.1689 275.74C50.2132 269.696 51.422 267.278 50.2132 266.07C49.0044 264.861 47.7955 253.981 47.7955 252.772C47.7955 251.563 59.884 170.57 59.884 170.57L44.169 133.096Z" fill="#3F3D56"/>
<path d="M295.827 15.0403C293.971 15.0423 292.192 15.7805 290.879 17.0928C289.567 18.4051 288.829 20.1844 288.827 22.0403V318.04C288.829 319.896 289.567 321.675 290.879 322.987C292.192 324.3 293.971 325.038 295.827 325.04H729.827C731.682 325.038 733.462 324.3 734.774 322.987C736.086 321.675 736.824 319.896 736.827 318.04V22.0403C736.824 20.1844 736.086 18.4052 734.774 17.0929C733.462 15.7806 731.683 15.0424 729.827 15.0403H295.827Z" fill="#E6E6E6"/>
<path d="M305.827 25.0403C303.971 25.0423 302.192 25.7805 300.879 27.0928C299.567 28.4051 298.829 30.1844 298.827 32.0403V308.04C298.829 309.896 299.567 311.675 300.879 312.987C302.192 314.3 303.971 315.038 305.827 315.04H719.827C721.683 315.038 723.462 314.299 724.774 312.987C726.086 311.675 726.824 309.896 726.827 308.04V32.0403C726.824 30.1844 726.086 28.4052 724.774 27.0929C723.462 25.7806 721.683 25.0424 719.827 25.0403H305.827Z" fill="white"/>
<path opacity="0.2" d="M329.713 255L351.608 238.989L438.145 225.264L491.319 211.54L520.512 223.089L560.131 166.937L587.239 172.655L627.901 128.052L648.753 134.914L696.713 56V254.89L329.713 255Z" fill="#25F43D"/>
<path d="M332.213 254.5C331.683 254.5 331.174 254.289 330.799 253.914C330.424 253.539 330.213 253.03 330.213 252.5C330.213 251.97 330.424 251.461 330.799 251.086C331.174 250.711 331.683 250.5 332.213 250.5C424.628 250.5 512.763 231.996 580.383 198.396C643.791 166.89 684.197 124.165 691.24 81.1768C691.282 80.9175 691.375 80.6691 691.513 80.4458C691.652 80.2225 691.833 80.0286 692.046 79.8753C692.26 79.7219 692.501 79.6121 692.757 79.5521C693.012 79.4921 693.278 79.483 693.537 79.5255C693.796 79.568 694.044 79.6611 694.268 79.7995C694.491 79.938 694.685 80.1191 694.838 80.3325C694.991 80.5459 695.101 80.7873 695.161 81.0431C695.221 81.2989 695.23 81.564 695.187 81.8233C691.529 104.154 679.653 126.059 659.891 146.93C640.401 167.514 614.25 186.036 582.164 201.979C514.001 235.848 425.234 254.5 332.213 254.5Z" fill="#25F43D"/>
<path d="M711.827 254.904H329.827V66.176H331.827V252.904H711.827V254.904Z" fill="#E6E6E6"/>
</g>
<defs>
<clipPath id="clip0">
<rect width="736.827" height="633.877" fill="white"/>
</clipPath>
</defs>
</svg>
